<svg xmlns="http://www.w3.org/2000/svg" viewBox="50 -10 992 492" width="992" height="492" font-family="ui-monospace, 'SF Mono', 'Cascadia Code', Consolas, 'Roboto Mono', monospace">
<rect x="50" y="-10" width="992" height="492" fill="#0f1317"/>
<rect x="94" y="22" width="204" height="416" rx="12" fill="#6aa9ff" fill-opacity="0.025" stroke="#3a4552" stroke-width="1.2" stroke-dasharray="7 5"/>
<text x="106" y="40" fill="#5e6b7d" font-size="11" letter-spacing="0.08em">⌖ HQ</text>
<rect x="794" y="22" width="204" height="116" rx="12" fill="#6aa9ff" fill-opacity="0.025" stroke="#3a4552" stroke-width="1.2" stroke-dasharray="7 5"/>
<text x="806" y="40" fill="#5e6b7d" font-size="11" letter-spacing="0.08em">⌖ AWS</text>
<g><path d="M 196 112 L 196 210" fill="none" stroke="#5e6b7d" stroke-width="1.6"/><text x="196" y="155" text-anchor="middle" fill="#5e6b7d" font-size="10">cat6</text></g>
<g><path d="M 196 262 L 196 360" fill="none" stroke="#5e6b7d" stroke-width="1.6"/><text x="196" y="305" text-anchor="middle" fill="#5e6b7d" font-size="10">cat6</text></g>
<g><path d="M 272 86 L 470 86" fill="none" stroke="#b18cff" stroke-width="1.8" stroke-dasharray="8 5"/><text x="371" y="80" text-anchor="middle" fill="#5e6b7d" font-size="10">DX-CID-01 · Equinix · 1Gbps</text></g>
<g><path d="M 622 86 L 820 86" fill="none" stroke="#b18cff" stroke-width="1.8" stroke-dasharray="8 5"/><text x="721" y="80" text-anchor="middle" fill="#5e6b7d" font-size="10">circuit</text></g>
<g transform="translate(120,60)"><rect width="152" height="52" rx="9" stroke-width="1.2" stroke="#3a4552" fill="#1d242c"/><g transform="translate(11,13)"><g fill="none" stroke="#5b9dff" stroke-width="1.6" stroke-linecap="round" stroke-linejoin="round" transform="scale(1.08)"><circle cx="12" cy="12" r="9"/><path d="M8 9.5h5m0 0-1.8-1.8M13 9.5l-1.8 1.8M16 14.5h-5m0 0 1.8-1.8M11 14.5l1.8 1.8"/></g></g><text x="44" y="22" fill="#dee5ee" font-size="12" font-weight="600">rt-hq-01</text><text x="44" y="37" fill="#5e6b7d" font-size="10">router</text></g>
<g transform="translate(120,210)"><rect width="152" height="52" rx="9" stroke-width="1.2" stroke="#3a4552" fill="#1d242c"/><g transform="translate(11,13)"><g fill="none" stroke="#f2994a" stroke-width="1.6" stroke-linecap="round" stroke-linejoin="round" transform="scale(1.08)"><rect x="4" y="5" width="16" height="14" rx="1.5"/><path d="M4 9.7h16M4 14.3h16M9.3 5v4.7M14.7 9.7v4.6M9.3 14.3V19"/></g></g><text x="44" y="22" fill="#dee5ee" font-size="12" font-weight="600">fw-hq-01</text><text x="44" y="37" fill="#5e6b7d" font-size="10">firewall</text></g>
<g transform="translate(120,360)"><rect width="152" height="52" rx="9" stroke-width="1.2" stroke="#3a4552" fill="#1d242c"/><g transform="translate(11,13)"><g fill="none" stroke="#4cc38a" stroke-width="1.6" stroke-linecap="round" stroke-linejoin="round" transform="scale(1.08)"><rect x="3" y="7" width="18" height="10" rx="2"/><path d="M7 10.2h4m0 0-1.5-1.4M11 10.2l-1.5 1.4M17 13.8h-4m0 0 1.5-1.4M13 13.8l1.5 1.4"/></g></g><text x="44" y="22" fill="#dee5ee" font-size="12" font-weight="600">sw-hq-01</text><text x="44" y="37" fill="#5e6b7d" font-size="10">switch</text></g>
<g transform="translate(820,60)"><rect width="152" height="52" rx="9" stroke-width="1.2" stroke="#3a4552" fill="#1d242c"/><g transform="translate(11,13)"><g fill="none" stroke="#b18cff" stroke-width="1.6" stroke-linecap="round" stroke-linejoin="round" transform="scale(1.08)"><path d="M7 18a4 4 0 0 1-.6-7.96A5.5 5.5 0 0 1 17.1 8.7 4.2 4.2 0 0 1 16.8 18H7Z"/></g></g><text x="44" y="22" fill="#dee5ee" font-size="12" font-weight="600">aws-tgw</text><text x="44" y="37" fill="#5e6b7d" font-size="10">aws external_peer</text></g>
<g transform="translate(470,60)"><rect width="152" height="52" rx="9" stroke-width="1.2" stroke="#5a5344" stroke-dasharray="6 4" fill="#1d242c"/><g transform="translate(11,13)"><g fill="none" stroke="#d9a44c" stroke-width="1.6" stroke-linecap="round" stroke-linejoin="round" transform="scale(1.08)"><path d="M6.5 15.5a3.5 3.5 0 0 1-.5-6.96A4.8 4.8 0 0 1 15.3 7.4 3.6 3.6 0 0 1 15 14.5"/><path d="M4 19h16M7.5 15.5V19M12 14.5V19M16.5 14.5V19"/></g></g><text x="44" y="22" fill="#dee5ee" font-size="12" font-weight="600">AWS Direct Connect</text><text x="44" y="37" fill="#5e6b7d" font-size="10">provider net · AWS</text></g>
</svg>