<svg xmlns="http://www.w3.org/2000/svg" viewBox="180 -10 732 332" width="732" height="332" font-family="ui-monospace, 'SF Mono', 'Cascadia Code', Consolas, 'Roboto Mono', monospace">
<rect x="180" y="-10" width="732" height="332" fill="#0f1317"/>
<rect x="224" y="22" width="644" height="162" rx="12" fill="#6aa9ff" fill-opacity="0.025" stroke="#3a4552" stroke-width="1.2" stroke-dasharray="7 5"/>
<text x="236" y="40" fill="#5e6b7d" font-size="11" letter-spacing="0.08em">⌖ HQ</text>
<g transform="translate(250,60)"><rect width="152" height="98" rx="9" stroke-width="1.2" stroke="#3a4552" fill="#1d242c"/><g transform="translate(11,13)"><g fill="none" stroke="#5b9dff" stroke-width="1.6" stroke-linecap="round" stroke-linejoin="round" transform="scale(1.08)"><circle cx="12" cy="12" r="9"/><path d="M8 9.5h5m0 0-1.8-1.8M13 9.5l-1.8 1.8M16 14.5h-5m0 0 1.8-1.8M11 14.5l1.8 1.8"/></g></g><text x="44" y="22" fill="#dee5ee" font-size="12" font-weight="600">rt-01</text><text x="44" y="37" fill="#5e6b7d" font-size="10">router</text><rect x="8" y="46" width="136" height="20" rx="5" fill="#0f1317" stroke="#3a4552" stroke-width="1" stroke-opacity="0.6"/><text x="16" y="58" fill="#5e6b7d" font-size="10">global</text><rect x="8" y="70" width="136" height="20" rx="5" fill="#0f1317" stroke="#7BD88F" stroke-width="1" stroke-opacity="0.9"/><text x="16" y="82" fill="#7BD88F" font-size="10">PROD</text></g>
<g transform="translate(690,60)"><rect width="152" height="98" rx="9" stroke-width="1.2" stroke="#3a4552" fill="#1d242c"/><g transform="translate(11,13)"><g fill="none" stroke="#5b9dff" stroke-width="1.6" stroke-linecap="round" stroke-linejoin="round" transform="scale(1.08)"><circle cx="12" cy="12" r="9"/><path d="M8 9.5h5m0 0-1.8-1.8M13 9.5l-1.8 1.8M16 14.5h-5m0 0 1.8-1.8M11 14.5l1.8 1.8"/></g></g><text x="44" y="22" fill="#dee5ee" font-size="12" font-weight="600">rt-02</text><text x="44" y="37" fill="#5e6b7d" font-size="10">router</text><rect x="8" y="46" width="136" height="20" rx="5" fill="#0f1317" stroke="#3a4552" stroke-width="1" stroke-opacity="0.6"/><text x="16" y="58" fill="#5e6b7d" font-size="10">global</text><rect x="8" y="70" width="136" height="20" rx="5" fill="#0f1317" stroke="#7BD88F" stroke-width="1" stroke-opacity="0.9"/><text x="16" y="82" fill="#7BD88F" font-size="10">PROD</text></g>
<g transform="translate(470,200)"><rect width="152" height="52" rx="24" stroke-width="1.2" stroke="#6fb3e0" fill="#17222c"/><g transform="translate(11,13)"><g fill="none" stroke="#6fb3e0" stroke-width="1.6" stroke-linecap="round" stroke-linejoin="round" transform="scale(1.08)"><path d="M3 12h18"/><path d="M7 12v4.5M12 12V7.5M17 12v4.5"/><circle cx="7" cy="18" r="1.5"/><circle cx="12" cy="6" r="1.5"/><circle cx="17" cy="18" r="1.5"/></g></g><text x="44" y="22" fill="#dee5ee" font-size="12" font-weight="600">seg-01</text><text x="44" y="33" fill="#5e6b7d" font-size="10">10.1.0.0/28 · vlan 100</text><text x="44" y="45" fill="#6fb3e0" font-size="9">VIP 10.1.0.1/28 (vrrp 10)</text></g>
<g><path d="M 394 140 L 497.11 200" fill="none" stroke="#7BD88F" stroke-width="2.2" stroke-dasharray="1.5 6" stroke-linecap="round"/><circle cx="394" cy="140" r="3.2" fill="#7BD88F"/><circle cx="497.11" cy="200" r="3.2" fill="#8FA0B8"/></g>
<g><path d="M 698 140 L 594.89 200" fill="none" stroke="#7BD88F" stroke-width="2.2" stroke-dasharray="1.5 6" stroke-linecap="round"/><circle cx="698" cy="140" r="3.2" fill="#7BD88F"/><circle cx="594.89" cy="200" r="3.2" fill="#8FA0B8"/></g>
</svg>