<svg xmlns="http://www.w3.org/2000/svg" viewBox="30 10 692 238" width="692" height="238" font-family="ui-monospace, 'SF Mono', 'Cascadia Code', Consolas, 'Roboto Mono', monospace">
<rect x="30" y="10" width="692" height="238" fill="#0f1317"/>
<rect x="74" y="42" width="204" height="162" rx="12" fill="#6aa9ff" fill-opacity="0.025" stroke="#3a4552" stroke-width="1.2" stroke-dasharray="7 5"/>
<text x="86" y="60" fill="#5e6b7d" font-size="11" letter-spacing="0.08em">⌖ HQ</text>
<rect x="474" y="42" width="204" height="162" rx="12" fill="#6aa9ff" fill-opacity="0.025" stroke="#3a4552" stroke-width="1.2" stroke-dasharray="7 5"/>
<text x="486" y="60" fill="#5e6b7d" font-size="11" letter-spacing="0.08em">⌖ DC</text>
<g opacity="0.15"><path d="M 252 129 L 500 129" fill="none" stroke="#5e6b7d" stroke-width="1.6"/><text x="376" y="123" text-anchor="middle" fill="#5e6b7d" font-size="10">smf</text></g>
<g transform="translate(100,80)"><rect width="152" height="98" rx="9" stroke-width="1.2" stroke="#3a4552" fill="#1d242c"/><g transform="translate(11,13)"><g fill="none" stroke="#5b9dff" stroke-width="1.6" stroke-linecap="round" stroke-linejoin="round" transform="scale(1.08)"><circle cx="12" cy="12" r="9"/><path d="M8 9.5h5m0 0-1.8-1.8M13 9.5l-1.8 1.8M16 14.5h-5m0 0 1.8-1.8M11 14.5l1.8 1.8"/></g></g><text x="44" y="22" fill="#dee5ee" font-size="12" font-weight="600">rt-hq-01</text><text x="44" y="37" fill="#5e6b7d" font-size="10">router</text><rect x="8" y="46" width="136" height="20" rx="5" fill="#0f1317" stroke="#3a4552" stroke-width="1" stroke-opacity="0.6"/><text x="16" y="58" fill="#5e6b7d" font-size="10">global</text><rect x="8" y="70" width="136" height="20" rx="5" fill="#0f1317" stroke="#7BD88F" stroke-width="1" stroke-opacity="0.9"/><text x="16" y="82" fill="#7BD88F" font-size="10">PROD</text></g>
<g transform="translate(500,80)"><rect width="152" height="98" rx="9" stroke-width="1.2" stroke="#3a4552" fill="#1d242c"/><g transform="translate(11,13)"><g fill="none" stroke="#5b9dff" stroke-width="1.6" stroke-linecap="round" stroke-linejoin="round" transform="scale(1.08)"><circle cx="12" cy="12" r="9"/><path d="M8 9.5h5m0 0-1.8-1.8M13 9.5l-1.8 1.8M16 14.5h-5m0 0 1.8-1.8M11 14.5l1.8 1.8"/></g></g><text x="44" y="22" fill="#dee5ee" font-size="12" font-weight="600">rt-dc-01</text><text x="44" y="37" fill="#5e6b7d" font-size="10">router</text><rect x="8" y="46" width="136" height="20" rx="5" fill="#0f1317" stroke="#3a4552" stroke-width="1" stroke-opacity="0.6"/><text x="16" y="58" fill="#5e6b7d" font-size="10">global</text><rect x="8" y="70" width="136" height="20" rx="5" fill="#0f1317" stroke="#7BD88F" stroke-width="1" stroke-opacity="0.9"/><text x="16" y="82" fill="#7BD88F" font-size="10">PROD</text></g>
<g><path d="M 244 160 L 508 160" fill="none" stroke="#7BD88F" stroke-width="2.2" stroke-dasharray="1.5 6" stroke-linecap="round"/><text x="376" y="154" text-anchor="middle" fill="#7BD88F" font-size="10">OSPF area 0</text><circle cx="244" cy="160" r="3.2" fill="#7BD88F"/><circle cx="508" cy="160" r="3.2" fill="#7BD88F"/></g>
</svg>