<svg xmlns="http://www.w3.org/2000/svg" viewBox="0 0 640 400" width="640" height="400">
  <rect width="640" height="400" rx="18" fill="#0E1621"/>
  <!-- palette rail -->
  <rect x="28" y="28" width="92" height="344" rx="10" fill="#141E2B"/>
  <g fill="#1E2A3A" stroke="#2C3B50" stroke-width="2">
    <rect x="42" y="46" width="64" height="48" rx="8"/>
    <rect x="42" y="106" width="64" height="48" rx="8"/>
    <rect x="42" y="166" width="64" height="48" rx="8"/>
  </g>
  <g fill="#6AA9FF"><circle cx="74" cy="64" r="7"/></g>
  <g fill="#4CC38A"><circle cx="74" cy="124" r="7"/></g>
  <g fill="#B18CFF"><circle cx="74" cy="184" r="7"/></g>
  <!-- two placed nodes, connected -->
  <line x1="268" y1="120" x2="452" y2="228" stroke="#6AA9FF" stroke-width="5" stroke-linecap="round"/>
  <g>
    <rect x="180" y="88" width="152" height="64" rx="10" fill="#16202E" stroke="#2C3B50" stroke-width="2.5"/>
    <circle cx="208" cy="120" r="10" fill="#6AA9FF"/>
    <rect x="228" y="106" width="76" height="10" rx="5" fill="#3D5271"/>
    <rect x="228" y="124" width="52" height="8" rx="4" fill="#26364B"/>
  </g>
  <g>
    <rect x="396" y="196" width="152" height="64" rx="10" fill="#16202E" stroke="#2C3B50" stroke-width="2.5"/>
    <circle cx="424" cy="228" r="10" fill="#4CC38A"/>
    <rect x="444" y="214" width="76" height="10" rx="5" fill="#3D5271"/>
    <rect x="444" y="232" width="52" height="8" rx="4" fill="#26364B"/>
  </g>
  <!-- port dot on the first node + dragging ghost with cursor -->
  <circle cx="332" cy="120" r="7" fill="#EAF2FF"/>
  <g stroke="#6AA9FF" stroke-width="3" stroke-dasharray="2 9" stroke-linecap="round">
    <line x1="339" y1="120" x2="470" y2="86"/>
  </g>
  <rect x="440" y="60" width="152" height="64" rx="10" fill="none" stroke="#6AA9FF" stroke-width="2.5" stroke-dasharray="7 7"/>
  <path d="M 506 118 l 0 26 l 7 -7 l 5 12 l 7 -3 l -5 -12 l 10 -1 z" fill="#EAF2FF" stroke="#0E1621" stroke-width="1.5"/>
</svg>
